<?xml version="1.0" standalone="no"?>
<!DOCTYPE svg PUBLIC "-//W3C//DTD SVG 20010904//EN"
 "http://www.w3.org/TR/2001/REC-SVG-20010904/DTD/svg10.dtd">
<svg version="1.0" xmlns="http://www.w3.org/2000/svg"
 width="612.000000pt" height="408.000000pt" viewBox="0 0 612.000000 408.000000"
 preserveAspectRatio="xMidYMid meet">

<g transform="translate(0.000000,408.000000) scale(0.100000,-0.100000)"
fill="#000000" stroke="none">
<path d="M0 2040 l0 -2040 3060 0 3060 0 0 2040 0 2040 -3060 0 -3060 0 0
-2040z m3281 1674 c45 -22 55 -24 85 -14 78 26 162 10 233 -44 29 -22 45 -26
100 -26 80 0 131 -22 186 -79 29 -30 47 -41 70 -41 36 0 111 -33 144 -63 13
-12 34 -39 47 -59 17 -27 42 -46 87 -67 73 -34 117 -77 146 -146 17 -40 30
-55 67 -74 58 -31 102 -94 115 -166 9 -48 17 -63 64 -108 59 -58 75 -97 75
-188 0 -39 5 -61 16 -69 53 -45 76 -132 60 -236 -6 -43 -4 -59 13 -93 34 -66
37 -120 11 -195 -22 -60 -22 -69 -10 -119 17 -73 7 -132 -35 -201 -30 -50 -34
-65 -34 -126 0 -80 -14 -114 -77 -182 -36 -39 -44 -54 -44 -86 0 -49 -42 -133
-82 -163 -70 -53 -85 -69 -96 -107 -21 -70 -67 -120 -137 -152 -51 -23 -68
-36 -83 -67 -35 -67 -92 -108 -172 -123 -44 -8 -64 -19 -100 -54 -61 -59 -99
-76 -183 -83 -45 -3 -81 -12 -97 -22 -75 -53 -136 -67 -219 -50 -53 10 -63 9
-106 -10 -61 -27 -145 -27 -204 -1 -38 17 -56 19 -135 14 -83 -6 -96 -4 -136
16 -25 13 -56 31 -69 41 -18 14 -41 19 -89 19 -80 0 -140 26 -183 80 -26 32
-38 39 -82 44 -97 13 -154 53 -197 140 -11 22 -34 40 -82 63 -71 34 -112 80
-139 157 -9 25 -28 48 -54 66 -80 56 -125 124 -125 189 0 22 -13 45 -46 82
-63 71 -84 120 -84 197 0 52 -5 69 -25 96 -53 69 -68 146 -44 226 10 32 8 42
-15 88 -33 65 -34 134 -5 203 19 42 20 55 10 93 -23 92 -9 165 43 227 21 25
25 39 24 97 -1 85 20 135 78 188 36 33 44 47 44 76 0 86 58 174 132 200 23 8
31 20 44 66 20 70 77 129 149 154 43 15 55 26 88 77 41 65 88 95 167 107 34 5
56 17 90 49 67 64 103 79 181 77 62 -1 70 1 111 33 58 45 127 59 199 41 49
-13 55 -12 103 10 70 33 141 32 207 -2z m-1758 -2724 c-3 -11 -9 -23 -14 -26
-10 -6 -12 29 -2 39 13 13 21 7 16 -13z m97 -279 c0 -6 -4 -13 -10 -16 -5 -3
-10 1 -10 9 0 9 5 16 10 16 6 0 10 -4 10 -9z"/>
<path d="M2897 3588 c-7 -4 -26 -8 -43 -8 -20 0 -38 -9 -52 -25 -19 -22 -30
-25 -87 -25 -36 0 -80 -6 -98 -13 -18 -8 -35 -13 -38 -13 -3 1 -13 -7 -23 -17
-36 -35 -83 -67 -101 -67 -34 0 -103 -49 -134 -97 -17 -25 -31 -52 -31 -58 0
-19 -47 -65 -67 -65 -32 0 -122 -68 -137 -104 -8 -18 -19 -37 -25 -40 -6 -4
-9 -12 -6 -17 3 -5 0 -6 -8 -3 -18 6 -115 -93 -134 -138 -26 -59 -41 -83 -60
-93 -10 -5 -22 -16 -26 -22 -4 -7 -14 -13 -22 -13 -22 0 -33 -30 -41 -115 -6
-63 -13 -88 -40 -133 -35 -57 -42 -90 -24 -108 7 -7 7 -21 -1 -42 -13 -37 -5
-67 15 -59 15 6 25 -20 26 -63 0 -14 14 -56 30 -95 17 -38 30 -79 30 -91 0
-12 6 -27 14 -33 7 -6 16 -24 19 -40 4 -16 19 -41 34 -55 15 -14 24 -29 20
-33 -14 -13 -61 12 -83 44 -12 18 -24 29 -28 26 -3 -4 -6 0 -6 7 0 7 -15 32
-34 55 -19 23 -39 57 -44 76 -10 32 -10 33 -11 6 -1 -15 3 -35 8 -45 5 -9 14
-30 20 -45 6 -16 20 -31 31 -34 19 -5 25 -20 21 -50 -1 -7 3 -13 9 -13 5 0 10
-13 10 -30 0 -20 -5 -30 -15 -30 -10 0 -15 10 -15 30 0 17 -4 30 -10 30 -5 0
-10 -9 -10 -21 0 -35 31 -129 42 -129 6 0 8 -3 5 -7 -4 -3 9 -26 29 -50 32
-39 35 -48 29 -83 -4 -22 -3 -40 2 -40 5 0 23 -29 39 -65 16 -36 34 -65 39
-65 15 0 33 -33 40 -76 9 -51 55 -123 105 -165 22 -19 40 -41 40 -49 0 -24 43
-104 65 -120 30 -22 72 -39 81 -32 4 4 4 2 0 -5 -4 -7 2 -14 14 -17 64 -19 60
-20 60 22 0 24 8 49 20 65 20 25 20 28 4 52 -9 13 -14 32 -10 40 3 8 2 25 -3
38 -5 14 -5 30 0 40 7 12 1 34 -22 82 -28 54 -42 71 -94 104 -33 22 -74 45
-90 53 -16 7 -42 25 -58 39 -15 14 -47 36 -70 49 l-42 23 24 -26 c13 -15 32
-29 43 -33 28 -8 22 -34 -8 -34 -62 0 -116 71 -100 133 3 14 2 29 -4 32 -14 8
-13 21 3 37 39 40 58 79 52 107 -4 20 -1 34 10 45 25 25 35 19 35 -18 0 -19 5
-38 10 -41 6 -3 10 1 10 10 0 12 5 15 16 11 9 -4 22 -2 29 4 17 14 0 82 -32
129 -13 18 -23 38 -23 42 0 12 -73 78 -86 79 -18 0 -74 69 -74 90 0 24 55 78
88 87 19 4 32 -2 61 -34 21 -22 62 -54 92 -71 30 -17 74 -51 99 -76 43 -45 72
-57 85 -36 3 6 -4 24 -16 41 -12 18 -23 47 -23 66 -1 28 -8 36 -36 51 -19 9
-42 32 -51 50 -18 35 -59 72 -81 72 -10 0 -9 -3 2 -10 11 -7 12 -10 2 -10 -17
0 -82 63 -82 79 0 6 14 -2 31 -19 18 -16 35 -30 39 -30 4 0 7 17 6 39 0 31 -6
41 -26 50 -51 23 -86 47 -124 83 -37 35 -39 39 -26 63 7 13 35 36 62 50 51 27
71 25 109 -14 9 -9 25 -23 35 -31 11 -8 63 -50 116 -93 54 -43 107 -92 118
-108 25 -34 40 -37 40 -8 0 11 5 40 11 65 8 32 16 44 30 44 21 0 38 22 21 28
-7 2 -12 12 -12 22 0 10 -5 22 -11 26 -18 11 -5 97 21 131 19 26 21 39 16 75
-4 23 -12 53 -19 64 -19 34 -78 97 -84 90 -3 -3 0 -12 6 -20 8 -10 9 -16 1
-21 -16 -10 -32 5 -27 26 3 13 -1 19 -17 21 -13 2 -21 11 -22 24 -2 38 -54
110 -54 75 0 -6 -17 -11 -37 -13 -30 -2 -39 -7 -41 -25 -3 -19 3 -23 37 -29
44 -7 56 -24 17 -24 -22 0 -25 -5 -33 -57 -4 -32 -7 -64 -6 -70 1 -19 -7 -16
-31 10 -20 21 -56 26 -56 6 0 -5 -9 -9 -20 -9 -24 0 -38 -25 -36 -67 1 -31 -9
-43 -38 -43 -7 0 -18 24 -25 54 -10 47 -10 59 3 85 9 16 20 32 25 36 6 3 28
38 50 78 43 78 100 127 148 127 18 0 39 15 71 50 30 33 53 50 69 50 30 0 29
-11 -2 -40 -26 -24 -30 -60 -9 -67 6 -2 17 9 23 24 17 41 55 83 76 83 23 0 15
-33 -25 -100 -34 -57 -39 -81 -12 -58 9 9 27 19 40 22 16 6 22 15 22 36 0 18
9 36 28 52 15 12 27 29 27 37 0 8 7 15 16 16 21 4 46 -12 36 -22 -5 -4 -12 -1
-16 6 -10 16 -16 1 -26 -71 -5 -37 -3 -48 7 -48 8 0 20 -9 28 -20 8 -11 24
-20 36 -20 27 0 74 -36 74 -58 0 -13 2 -14 8 -4 7 9 19 2 47 -27 22 -22 48
-42 60 -45 41 -10 60 -86 36 -144 -16 -37 -13 -37 -52 -16 -28 14 -33 14 -55
-1 -36 -23 -56 -6 -43 38 13 47 12 51 -16 33 -40 -26 -55 -21 -55 19 0 39 -1
40 -47 23 -23 -8 -33 -18 -33 -33 0 -11 -3 -38 -7 -59 -6 -38 -5 -39 20 -34
35 7 37 -23 4 -49 -26 -20 -45 -107 -26 -118 7 -5 6 -12 -2 -21 -17 -21 4 -17
34 6 22 18 25 25 17 46 -8 19 -6 26 5 30 18 7 35 -3 35 -23 0 -11 5 -13 18 -7
9 4 72 10 140 12 l122 4 0 -24 1 -23 14 25 c8 14 14 32 15 41 0 9 6 22 13 28
20 16 51 -20 42 -48 -5 -16 -3 -19 8 -15 20 7 63 -16 118 -65 39 -34 48 -48
54 -88 4 -27 12 -51 17 -54 13 -8 -14 -85 -28 -82 -16 2 -39 86 -26 91 31 10
-4 72 -41 72 -11 0 -26 18 -39 46 -20 41 -24 43 -35 27 -13 -17 -15 -16 -49 2
-34 18 -36 18 -46 2 -5 -10 -14 -15 -19 -12 -5 4 -7 11 -4 16 4 5 1 9 -4 9 -6
0 -11 -9 -11 -21 0 -11 -4 -17 -10 -14 -5 3 -12 -7 -16 -22 -12 -49 -66 -93
-76 -62 -2 6 -20 12 -40 13 -31 3 -41 -1 -54 -22 -9 -14 -18 -39 -19 -56 -4
-47 -4 -48 -14 -41 -6 3 -6 18 0 38 l9 32 -23 -29 c-30 -37 -29 -100 2 -206
13 -41 31 -124 42 -185 10 -60 26 -124 34 -141 8 -18 15 -43 15 -56 0 -12 6
-43 14 -68 12 -42 16 -45 47 -45 25 0 47 -10 81 -38 82 -67 76 -102 -10 -57
-70 36 -92 53 -92 71 -1 11 -2 11 -9 -1 -14 -24 -26 -223 -25 -393 2 -135 4
-161 19 -177 11 -13 15 -26 10 -37 -7 -16 -9 -15 -16 7 -5 16 -7 -1 -6 -50 0
-41 5 -81 10 -87 7 -9 4 -13 -8 -13 -13 0 -15 -6 -10 -31 l7 -30 -66 2 c-37 1
-71 -2 -77 -8 -7 -7 -19 -7 -38 0 -26 9 -27 13 -23 61 3 40 0 56 -15 75 -11
14 -25 21 -31 17 -17 -10 -15 -43 3 -50 29 -11 16 -31 -21 -33 -32 -1 -38 2
-47 28 -10 25 -17 29 -49 29 -21 0 -38 -4 -38 -10 0 -13 71 -80 86 -80 7 0 25
-10 41 -23 15 -13 44 -32 63 -43 19 -10 44 -29 57 -41 24 -23 121 -63 153 -63
27 0 64 16 83 35 14 13 21 14 39 4 13 -7 26 -17 30 -22 4 -6 23 -11 42 -11 20
0 31 -3 25 -7 -7 -4 -8 -9 -1 -13 5 -3 13 1 16 10 5 14 19 15 89 11 45 -4 91
-9 101 -13 11 -4 21 -2 27 7 7 11 9 11 9 -3 0 -10 -9 -22 -20 -28 -11 -6 -20
-17 -20 -25 0 -24 73 -18 140 10 72 30 97 31 120 5 11 -13 41 -24 88 -32 61
-10 74 -10 89 3 29 25 110 69 126 69 30 0 84 39 167 121 23 23 50 39 76 43 21
4 59 16 83 27 24 10 47 17 51 14 11 -7 53 44 68 81 11 26 116 104 140 104 7 0
29 39 51 93 6 16 20 31 31 34 25 7 25 15 0 38 -17 15 -24 16 -49 5 -16 -6 -41
-10 -55 -8 -18 2 -35 -7 -59 -30 -43 -42 -83 -42 -80 0 1 25 0 26 -22 16 -29
-13 -29 -45 0 -69 18 -16 20 -16 32 0 7 9 12 11 13 4 0 -6 -5 -15 -10 -18 -6
-3 -7 -17 -4 -30 10 -41 -22 -90 -75 -115 -56 -26 -85 -24 -89 8 -3 16 2 22
16 22 22 0 32 18 32 55 0 31 -25 55 -57 55 -24 0 -25 1 -11 22 16 24 74 42 84
27 7 -12 24 -12 24 0 0 5 -15 18 -32 30 -18 11 -28 21 -23 21 6 0 3 5 -5 10
-10 6 -11 10 -2 10 6 0 12 5 12 11 0 7 -10 5 -25 -5 -50 -33 -91 -10 -66 37
13 24 122 101 157 111 27 8 54 -2 54 -20 0 -8 -18 -25 -39 -40 -44 -29 -67
-63 -29 -43 12 6 43 27 69 45 49 36 76 42 101 22 19 -16 31 -48 18 -48 -6 0
-10 -5 -10 -10 0 -6 3 -9 8 -9 24 4 40 -4 45 -22 3 -12 10 -18 16 -14 20 12
11 40 -22 67 -41 32 -43 53 -5 69 22 9 38 9 66 0 50 -15 75 -52 76 -112 1 -27
4 -49 8 -49 7 0 33 42 30 48 -1 1 -2 10 -2 20 0 12 2 14 8 4 8 -13 23 23 37
92 4 17 25 46 51 69 24 21 44 45 44 53 0 8 4 14 9 14 13 0 38 59 45 108 l6 43
-24 -17 c-14 -8 -28 -26 -32 -37 -4 -12 -23 -43 -43 -69 -31 -40 -43 -48 -90
-58 -67 -15 -124 4 -184 60 -32 31 -40 46 -44 84 -6 46 -4 49 43 97 26 27 54
49 61 49 7 0 13 7 13 15 0 9 -9 15 -25 15 -15 0 -25 -6 -25 -15 0 -13 -3 -12
-19 2 -14 12 -18 24 -14 45 3 15 0 34 -7 43 -14 17 -5 35 19 35 10 0 24 6 30
14 9 10 21 12 49 5 20 -4 38 -6 41 -3 2 2 -1 4 -8 4 -7 0 -9 5 -5 11 3 6 10 7
15 2 10 -10 79 -5 79 6 0 4 14 8 32 9 26 2 39 -5 77 -46 25 -26 55 -51 65 -55
18 -7 19 -3 13 57 -5 52 -2 74 13 109 29 66 27 162 -5 214 -1 1 -23 -6 -49
-16 -53 -20 -48 -37 14 -43 25 -2 36 -9 38 -22 7 -37 -55 -48 -109 -20 l-30
15 16 -30 c16 -32 39 -49 74 -54 30 -5 36 -14 20 -33 -29 -35 -112 12 -140 78
-10 25 -10 31 2 39 9 6 11 11 3 17 -6 4 -19 23 -29 42 -10 19 -22 42 -27 50
-4 8 -15 29 -23 45 l-14 30 -1 -41 c0 -22 -11 -74 -25 -115 l-26 -74 27 -21
c21 -18 23 -22 10 -27 -25 -10 -79 4 -103 26 -28 25 -29 37 -3 30 14 -4 20 0
20 11 0 9 -7 16 -15 16 -11 0 -15 12 -15 49 0 29 -6 55 -14 64 -8 7 -20 34
-27 58 -7 24 -16 48 -21 54 -4 5 -8 24 -8 42 0 20 -5 32 -12 31 -7 -2 -17 12
-23 30 -6 19 -16 37 -22 40 -5 4 -13 14 -16 22 -4 10 -6 8 -6 -7 -1 -13 -4
-23 -8 -24 -5 0 -16 -2 -25 -4 -13 -2 -18 3 -18 21 0 22 3 23 20 14 11 -6 20
-7 20 -2 0 13 -44 52 -59 52 -15 0 -41 25 -41 39 0 14 41 36 60 33 9 -2 11 0
5 5 -20 16 -3 101 26 132 22 24 24 31 7 31 -7 0 -22 12 -32 27 -18 24 -18 27
-3 38 19 13 23 35 7 35 -5 0 -10 -4 -10 -10 0 -5 -9 -10 -20 -10 -14 0 -20 7
-20 21 0 15 -4 19 -16 15 -11 -4 -22 1 -30 13 -8 11 -24 21 -37 23 -14 2 -23
11 -25 26 -2 15 -10 22 -25 21 -12 0 -16 -3 -9 -6 49 -19 -50 -25 -134 -8 -13
3 -28 -3 -39 -15 -17 -18 -17 -20 -1 -26 10 -4 31 -36 47 -71 16 -36 37 -72
45 -81 12 -11 15 -27 11 -55 -5 -36 -3 -40 24 -50 33 -13 41 -42 9 -34 -11 3
-20 1 -20 -5 0 -5 -10 -6 -22 -2 -20 6 -21 5 -7 -9 9 -8 24 -15 35 -14 10 1
19 -4 20 -10 1 -7 2 -18 3 -24 0 -5 6 -7 11 -4 15 9 12 -14 -3 -30 -7 -7 -22
-15 -33 -17 -18 -5 -18 -5 1 -14 49 -22 105 -58 110 -72 4 -12 3 -12 -9 -3 -8
7 -31 14 -52 17 -32 4 -35 3 -24 -11 7 -8 35 -30 62 -47 28 -18 56 -44 64 -59
13 -26 13 -27 -26 -33 -44 -7 -57 -20 -40 -41 18 -21 48 -18 55 5 11 36 35 16
35 -30 0 -15 25 -29 53 -30 9 0 2 30 -18 76 -8 16 -17 50 -20 75 -3 24 -13 68
-22 97 -22 76 -7 103 19 32 11 -30 23 -66 27 -80 7 -25 8 -25 14 7 6 30 9 32
47 23 3 0 13 -7 23 -15 21 -15 15 -57 -7 -49 -7 3 -18 -1 -24 -9 -9 -11 -8
-18 8 -32 11 -10 20 -24 20 -31 0 -7 6 -19 13 -26 23 -26 37 -58 37 -87 0 -25
20 -47 41 -43 3 0 5 -9 5 -21 -1 -14 4 -21 13 -19 10 2 12 -5 9 -23 -3 -14 -1
-28 3 -31 18 -11 9 -43 -13 -47 l-23 -4 23 -2 c21 -1 21 -2 5 -19 -16 -17 -20
-17 -35 -4 -10 8 -18 23 -18 34 0 20 -11 23 -26 8 -21 -21 -40 1 -53 61 -6 33
-16 57 -21 54 -5 -3 -30 -1 -56 5 -40 9 -49 8 -56 -5 -5 -8 -15 -15 -23 -15
-8 0 -39 -13 -69 -29 -55 -28 -56 -28 -62 -8 -5 17 4 30 42 64 31 27 43 43 32
43 -9 0 -18 6 -21 13 -4 10 -7 10 -18 0 -7 -7 -21 -13 -30 -13 -21 0 -26 -15
-34 -94 -3 -32 -12 -77 -20 -99 -8 -22 -12 -44 -9 -48 2 -4 0 -10 -6 -14 -5
-3 -10 -15 -10 -26 0 -10 -3 -19 -7 -19 -5 0 -21 -11 -37 -25 -16 -14 -33 -25
-38 -25 -5 0 -27 -18 -48 -40 -21 -22 -44 -40 -52 -40 -7 0 -30 -5 -51 -11
-36 -10 -38 -11 -20 -24 16 -13 14 -13 -17 -4 -59 18 -64 17 -67 -18 -1 -19 2
-33 8 -33 7 0 8 -21 4 -62 -4 -48 -3 -59 5 -48 10 13 11 13 7 0 -3 -12 -17
-14 -61 -12 -31 2 -56 0 -56 -3 0 -12 40 -84 50 -90 5 -3 10 -11 10 -16 0 -6
-4 -7 -10 -4 -6 4 -10 -5 -10 -19 0 -14 -4 -26 -8 -26 -10 0 -51 79 -61 118
-5 17 -18 31 -36 37 -24 8 -30 7 -43 -13 -8 -12 -20 -22 -26 -22 -35 -1 -37
-17 -9 -68 31 -56 24 -84 -10 -37 -55 75 -60 78 -107 70 -39 -7 -42 -9 -26
-20 11 -9 16 -23 14 -42 -3 -25 1 -29 37 -37 70 -14 88 -25 82 -46 -4 -14 0
-20 12 -20 24 0 41 -20 41 -46 0 -13 5 -26 10 -29 6 -3 10 -15 10 -26 0 -10 3
-19 8 -19 4 0 8 -11 8 -25 2 -30 -21 -39 -78 -30 -59 10 -104 31 -122 57 -11
16 -19 19 -27 11 -7 -7 -4 -16 13 -29 29 -24 34 -49 14 -79 -21 -32 -20 -37 7
-33 27 4 70 -33 65 -57 -1 -10 -27 -31 -56 -47 -63 -34 -97 -30 -105 10 -4 17
-16 32 -35 40 -16 7 -34 23 -40 36 -12 27 -5 41 13 26 26 -22 11 27 -21 69
-37 48 -41 60 -21 65 54 17 53 15 9 55 -23 21 -42 43 -42 49 0 18 20 24 35 12
12 -10 14 -6 13 24 -1 20 -5 36 -9 36 -5 0 -13 10 -20 21 -18 35 7 39 77 14
34 -13 65 -20 68 -17 12 12 5 32 -11 32 -17 1 -17 1 0 14 19 15 22 26 7 26
-15 0 -35 17 -91 74 -26 26 -52 46 -57 42 -17 -10 -113 84 -110 108 4 29 51
44 72 23 9 -8 16 -20 16 -26 0 -5 4 -13 10 -16 13 -8 3 20 -27 72 -14 23 -23
53 -21 65 3 20 8 23 41 21 33 -2 37 0 37 21 0 32 68 92 119 106 46 12 58 25
41 45 -7 8 -11 15 -9 16 26 6 49 4 49 -5 0 -5 7 -1 15 10 8 10 14 15 14 9 0
-5 -6 -19 -14 -29 -8 -11 -15 -16 -15 -10 0 14 -20 -19 -20 -33 0 -8 13 -13
34 -13 34 0 34 0 44 60 6 34 20 74 32 90 86 121 229 133 339 27 25 -23 42 -35
39 -26 -3 8 2 33 13 55 10 21 18 49 19 61 0 11 23 46 52 77 49 53 79 68 93 46
3 -5 15 -15 26 -20 17 -10 21 -7 30 19 7 20 18 31 30 31 10 0 19 7 19 15 0 8
3 14 8 14 14 -3 45 1 41 5 -2 2 -16 6 -31 10 -24 5 -28 3 -28 -14 0 -12 -4
-19 -10 -15 -5 3 -6 13 -3 21 5 14 3 15 -18 4 -13 -7 -34 -21 -45 -32 -15 -13
-24 -16 -29 -9 -11 19 5 49 39 70 28 17 32 26 28 48 -2 16 -9 33 -14 40 -5 6
-5 13 -1 15 4 3 2 3 -5 1 -22 -5 -70 50 -80 93 -6 21 -13 63 -17 93 -3 29 -20
83 -38 119 -28 57 -32 62 -38 41 -3 -13 -2 -32 3 -41 13 -27 13 -81 -1 -106
-10 -18 -9 -23 4 -28 17 -7 22 -93 6 -109 -6 -6 -6 -27 0 -55 34 -147 -72
-310 -201 -310 -38 0 -128 41 -162 74 -48 46 -66 92 -67 171 -1 30 -4 36 -11
25 -8 -13 -10 -12 -11 5 -1 11 -2 26 -2 33 1 7 -1 11 -3 9 -3 -2 -18 8 -34 23
-26 25 -33 26 -63 17 -27 -9 -33 -15 -29 -33 4 -23 -11 -39 -28 -29 -6 4 -7
13 -2 21 11 19 -66 103 -78 85 -9 -15 -65 -20 -65 -6 0 5 8 8 17 7 20 -4 58
15 58 27 0 5 -13 11 -29 14 -41 8 -50 37 -11 37 16 0 41 5 55 12 23 10 24 13
11 32 -7 12 -17 36 -20 53 -7 30 -5 33 28 47 20 8 36 19 36 25 0 5 3 17 7 26
5 14 2 16 -17 10 -18 -6 -22 -4 -18 7 4 10 -1 14 -16 14 -12 -1 -20 4 -18 12
1 8 -2 11 -7 7 -6 -3 -22 12 -36 35 -27 42 -45 52 -45 23 0 -10 -5 -25 -11
-33 -9 -12 -10 -11 -6 7 3 14 0 21 -7 20 -6 -1 -10 6 -10 15 1 10 -2 16 -6 13
-5 -3 -7 -21 -5 -41 l2 -36 -23 26 c-13 14 -24 31 -24 39 0 7 -5 18 -11 24 -8
8 -5 13 12 18 13 4 32 14 42 23 9 8 20 12 24 8 4 -3 13 6 20 21 11 24 13 25 9
5 -4 -22 -3 -22 17 -10 24 14 87 12 87 -3 0 -5 -8 -9 -17 -9 -12 0 -8 -7 14
-22 18 -13 33 -27 33 -31 0 -5 10 -22 21 -39 15 -20 24 -26 29 -18 4 7 6 -7 4
-30 -2 -33 3 -47 25 -73 15 -18 30 -40 34 -49 9 -24 -18 -30 -41 -8 -14 14
-22 16 -31 7 -20 -20 17 -47 64 -47 41 0 65 -13 65 -36 0 -6 -22 -14 -50 -18
-69 -9 -64 -36 10 -51 61 -12 67 -15 79 -41 11 -24 10 -26 -9 -21 -21 5 -29
-16 -9 -28 6 -4 8 -13 5 -21 -3 -7 -1 -16 4 -19 6 -4 10 -1 10 6 0 24 69 95
109 114 44 19 46 22 32 44 -7 11 -13 10 -35 -5 -14 -11 -26 -25 -26 -32 0 -7
-4 -11 -9 -8 -5 4 -12 0 -15 -6 -6 -15 -27 13 -38 49 -8 28 -4 30 53 39 24 3
69 12 99 19 30 8 86 17 124 21 55 5 66 9 54 18 -8 6 -14 17 -12 24 1 7 0 8 -3
2 -2 -5 -11 -10 -19 -10 -9 0 -12 5 -9 10 3 6 0 10 -7 10 -25 1 -48 27 -52 61
-4 30 -1 35 16 36 11 1 27 -5 35 -13 8 -8 19 -12 24 -9 16 11 10 33 -11 40
-11 4 -18 10 -15 15 3 5 -1 10 -7 13 -7 2 -10 8 -6 12 4 4 14 2 23 -5 20 -16
29 -8 20 19 -5 16 -15 21 -41 21 -34 0 -45 12 -23 26 8 4 1 17 -20 35 -18 15
-32 30 -32 33 2 19 -1 24 -21 34 -19 9 -20 11 -5 11 10 1 15 6 12 11 -3 6 -2
10 4 10 5 0 18 3 28 6 15 5 15 4 3 -5 -13 -9 -13 -11 3 -11 9 0 17 6 18 13 0
6 4 3 8 -7 4 -11 15 -20 25 -22 28 -4 66 -33 68 -52 0 -9 2 -21 3 -27 2 -5 3
-16 4 -24 1 -8 25 9 59 40 69 65 77 76 63 93 -16 19 -3 26 46 26 24 0 43 5 43
10 0 6 7 10 16 10 14 0 14 3 4 15 -15 18 -67 20 -73 3 -8 -23 -20 0 -13 25 3
15 18 30 36 37 16 7 30 15 30 19 0 4 16 13 37 20 l36 13 -42 38 c-41 37 -44
38 -119 38 -56 0 -92 6 -132 22 -58 23 -211 43 -343 44 -42 1 -77 5 -77 9 0 5
-9 5 -20 2 -21 -7 -90 -8 -153 -3 -21 2 -44 0 -50 -4z m23 -48 c11 -11 20 -33
20 -50 0 -16 4 -30 10 -30 11 0 20 35 17 70 -2 21 3 26 27 28 16 2 32 -2 36
-8 6 -9 13 -9 28 1 19 12 23 11 36 -6 21 -27 20 -58 -4 -100 -44 -79 -72 -93
-171 -91 l-76 1 49 -35 c26 -19 73 -51 103 -70 30 -19 55 -38 55 -42 0 -14
-33 -23 -38 -10 -2 7 -23 26 -47 42 -37 25 -48 28 -70 20 -17 -7 -24 -7 -20 0
3 6 -1 10 -9 10 -9 0 -16 -4 -16 -10 0 -5 -11 -10 -25 -10 -35 0 -31 15 8 27
l32 9 -40 26 c-22 14 -57 42 -78 61 -20 19 -48 38 -62 41 -14 4 -25 11 -25 17
0 12 29 4 82 -22 21 -11 40 -19 43 -19 8 0 85 82 85 91 0 4 -4 11 -10 14 -14
8 -13 38 2 53 17 17 35 15 58 -8z m284 -15 c8 -23 -5 -78 -23 -92 -27 -20 -1
-32 47 -24 23 5 42 5 42 1 0 -4 -15 -11 -34 -14 -19 -4 -36 -12 -39 -19 -3 -9
-13 -8 -40 5 l-37 18 20 32 c11 18 20 44 20 59 0 39 32 64 44 34z m-449 -15
c3 -5 -12 -17 -35 -26 -26 -11 -39 -21 -36 -30 3 -8 0 -11 -9 -8 -8 3 -32 -11
-55 -33 -23 -21 -47 -43 -54 -50 -7 -6 -28 -20 -47 -30 -19 -10 -60 -35 -92
-56 -33 -21 -63 -37 -69 -35 -15 5 79 93 150 140 34 23 62 45 62 50 0 4 6 8
14 8 8 0 25 13 38 28 13 16 33 34 43 40 25 14 82 15 90 2z m640 -62 c-16 -6
-36 -15 -43 -21 -9 -7 -16 -7 -24 1 -12 12 -6 16 37 25 41 9 61 6 30 -5z m38
-25 c-7 -2 -19 -2 -25 0 -7 3 -2 5 12 5 14 0 19 -2 13 -5z m-98 -48 c-42 -20
-61 -20 -45 0 7 8 27 15 44 14 l31 -1 -30 -13z m200 -3 c-3 -3 -11 0 -18 7 -9
10 -8 11 6 5 10 -3 15 -9 12 -12z m-718 -178 c-3 -3 -12 -4 -19 -1 -8 3 -5 6
6 6 11 1 17 -2 13 -5z m363 -20 c0 -8 -5 -14 -11 -14 -7 0 -9 -10 -7 -25 3
-13 2 -24 -1 -23 -3 0 -13 0 -21 -1 -13 -1 -13 -2 0 -11 13 -8 13 -10 -2 -10
-11 0 -15 -7 -14 -24 2 -14 -4 -28 -16 -35 -17 -11 -19 -10 -14 6 3 10 6 42 7
71 1 28 5 52 9 52 4 0 17 9 30 20 24 21 40 18 40 -6z m-570 12 c0 -3 -4 -8
-10 -11 -5 -3 -10 -1 -10 4 0 6 5 11 10 11 6 0 10 -2 10 -4z m69 -21 c-5 -4
-40 -12 -69 -15 -11 -1 -9 -4 5 -11 18 -8 18 -8 -4 -6 -30 2 -39 23 -14 30 25
6 87 8 82 2z m-69 -75 c0 -5 -5 -10 -11 -10 -5 0 -7 5 -4 10 3 6 8 10 11 10 2
0 4 -4 4 -10z m585 -11 c10 -14 1 -21 -19 -13 -9 3 -13 10 -10 15 7 12 21 11
29 -2z m-13 -29 c6 0 6 -6 -2 -15 -16 -19 -34 -20 -27 -1 3 8 3 17 -1 19 -4 2
-1 2 6 0 8 -1 18 -3 24 -3z m-46 -60 c4 -17 11 -27 17 -23 6 4 8 -2 4 -17 -3
-13 -1 -32 4 -43 8 -14 8 -18 -1 -15 -12 4 -50 92 -50 116 0 25 21 11 26 -18z
m-376 16 c0 -3 -4 -8 -10 -11 -5 -3 -10 -1 -10 4 0 6 5 11 10 11 6 0 10 -2 10
-4z m510 -6 c0 -5 -5 -10 -11 -10 -5 0 -7 5 -4 10 3 6 8 10 11 10 2 0 4 -4 4
-10z m-570 -11 c0 -6 7 -9 15 -5 17 6 18 4 9 -18 -8 -21 -24 -21 -24 0 0 10
-6 14 -14 11 -10 -4 -13 -1 -9 9 6 17 23 19 23 3z m1130 -9 c0 -5 -4 -10 -10
-10 -5 0 -10 5 -10 10 0 6 5 10 10 10 6 0 10 -4 10 -10z m93 -68 c-39 -28 -57
14 -22 49 l23 23 8 -30 c6 -22 4 -32 -9 -42z m-603 43 c-7 -9 -15 -13 -17 -11
-7 7 7 26 19 26 6 0 6 -6 -2 -15z m-1040 -15 c0 -5 -7 -10 -15 -10 -8 0 -15 5
-15 10 0 6 7 10 15 10 8 0 15 -4 15 -10z m1000 -30 c9 -16 8 -18 -5 -14 -8 3
-13 10 -10 14 3 5 -1 11 -7 13 -10 4 -10 6 -1 6 7 1 17 -8 23 -19z m-32 -5
c-10 -8 -68 -13 -68 -5 0 5 12 10 28 12 25 3 48 0 40 -7z m765 8 c-13 -2 -23
-11 -23 -18 0 -7 -6 -20 -13 -27 -8 -7 -19 -23 -26 -36 -6 -12 -18 -22 -26
-22 -8 0 -17 -11 -21 -25 -9 -36 -26 -31 -22 8 2 20 8 31 17 29 19 -4 43 19
37 35 -3 8 2 13 14 13 21 0 27 15 10 25 -18 11 -3 20 37 21 21 1 28 -1 16 -3z
m-1619 -60 c4 -16 9 -37 12 -48 3 -11 -4 -2 -16 19 -22 43 -25 56 -11 56 5 0
12 -12 15 -27z m1616 -24 c0 -6 -4 -7 -10 -4 -5 3 -10 11 -10 16 0 6 5 7 10 4
6 -3 10 -11 10 -16z m-1663 -39 c-1 -11 -5 -20 -9 -20 -4 0 -8 9 -8 20 0 11 4
20 9 20 6 0 9 -9 8 -20z m1618 0 c3 -5 -1 -10 -9 -10 -9 0 -16 5 -16 10 0 6 4
10 9 10 6 0 13 -4 16 -10z m-1630 -59 c3 -5 1 -12 -5 -16 -5 -3 -10 1 -10 9 0
18 6 21 15 7z m-112 -83 c-3 -16 -9 -28 -14 -28 -5 0 -6 7 -4 15 3 8 7 22 10
31 8 26 14 12 8 -18z m697 12 c0 -5 -9 -10 -20 -10 -11 0 -20 5 -20 10 0 6 9
10 20 10 11 0 20 -4 20 -10z m-760 -20 c9 -18 7 -19 -23 -18 -32 1 -33 2 -18
20 20 23 28 23 41 -2z m500 -6 c0 -8 -4 -14 -10 -14 -5 0 -10 9 -10 21 0 11 5
17 10 14 6 -3 10 -13 10 -21z m1325 16 c-3 -5 -10 -10 -16 -10 -5 0 -9 5 -9
10 0 6 7 10 16 10 8 0 12 -4 9 -10z m-1696 -19 c9 -6 12 -18 7 -37 l-7 -27
-23 24 c-12 13 -23 30 -23 37 0 14 26 16 46 3z m46 -41 c-3 -5 -1 -11 5 -15
19 -12 10 -22 -20 -22 -17 0 -26 3 -20 7 7 4 11 10 11 14 -1 3 -1 16 -1 27 0
18 2 19 15 9 8 -7 13 -16 10 -20z m-132 5 c-3 -9 -8 -14 -10 -11 -3 3 -2 9 2
15 9 16 15 13 8 -4z m1536 -66 c-9 -17 -13 -19 -20 -8 -5 8 -3 16 4 21 22 14
28 8 16 -13z m-1872 -45 c-3 -3 -12 -4 -19 -1 -8 3 -5 6 6 6 11 1 17 -2 13 -5z
m1027 -168 c12 -23 16 -41 11 -53 -7 -16 -9 -15 -13 7 -2 14 -13 37 -24 52
-14 20 -16 28 -6 28 7 0 22 -16 32 -34z m-74 -28 c0 -10 -33 3 -42 16 -4 6 -2
16 4 24 9 11 14 9 24 -10 8 -13 13 -26 14 -30z m280 -59 c0 -31 -4 -48 -10
-44 -5 3 -10 -1 -10 -9 0 -16 -12 -21 -23 -10 -3 4 0 13 8 20 7 7 16 32 20 54
9 54 15 50 15 -11z m888 -87 c7 -5 10 -17 6 -28 -5 -15 -4 -16 5 -4 8 11 13
12 22 3 13 -13 5 -43 -11 -43 -6 0 -8 4 -5 10 3 5 0 7 -9 4 -10 -4 -15 2 -18
18 -5 34 -34 35 -43 1 -6 -25 -8 -26 -17 -10 -18 33 36 70 70 49z m499 -44
c-3 -8 -6 -5 -6 6 -1 11 2 17 5 13 3 -3 4 -12 1 -19z m-33 -3 c3 -8 1 -15 -4
-15 -6 0 -10 7 -10 15 0 8 2 15 4 15 2 0 6 -7 10 -15z m-497 -57 c-3 -8 -6 -5
-6 6 -1 11 2 17 5 13 3 -3 4 -12 1 -19z m589 -24 c-15 -14 -16 -13 -16 16 0
29 1 30 16 16 14 -15 14 -17 0 -32z m-595 -19 c14 5 17 3 13 -9 -4 -11 -1 -16
10 -16 9 0 16 6 16 13 1 6 9 2 19 -10 21 -25 36 -31 26 -10 -4 6 1 3 9 -7 23
-29 20 -36 -17 -36 -22 0 -36 -7 -45 -21 -14 -22 -64 -24 -68 -1 -1 7 0 8 3 2
8 -16 53 -13 47 4 -3 8 -1 17 5 21 6 3 11 10 11 16 0 13 -64 11 -78 -3 -9 -9
-12 -7 -12 9 0 11 7 26 15 33 8 6 14 15 13 18 -2 18 5 25 9 9 3 -12 10 -16 24
-12z m-2127 -190 c-4 -8 -1 -15 6 -15 6 0 8 -5 5 -10 -10 -16 -35 8 -28 26 3
8 9 14 14 14 4 0 6 -7 3 -15z m2360 -17 c-3 -4 -13 -8 -22 -8 -9 -1 -28 -7
-42 -15 -30 -17 -26 -18 17 -6 25 7 31 6 27 -4 -3 -8 -13 -11 -22 -8 -12 5
-14 2 -9 -11 5 -11 3 -15 -5 -10 -8 5 -9 2 -4 -11 4 -11 0 -25 -10 -36 -9 -10
-13 -22 -10 -27 3 -4 -3 -8 -12 -8 -59 0 -72 -5 -72 -23 0 -11 5 -23 10 -26 8
-5 7 -11 -1 -21 -6 -7 -16 -11 -21 -8 -6 4 -8 -1 -4 -14 4 -11 3 -23 -2 -26
-6 -3 -10 0 -9 7 1 42 -5 67 -16 67 -8 0 -19 11 -25 25 -13 27 -27 32 -39 12
-8 -12 -40 -30 -75 -41 -12 -3 -18 0 -18 9 0 8 -5 15 -10 15 -6 0 -10 -6 -9
-12 3 -29 -2 -38 -22 -38 -11 0 -29 -5 -39 -10 -13 -7 -21 -7 -25 0 -3 5 1 10
9 10 9 0 16 7 16 15 0 8 5 15 10 15 6 0 10 -4 10 -10 0 -5 5 -10 10 -10 6 0
10 6 10 14 0 8 7 22 15 30 12 12 13 20 5 35 -10 21 -14 89 -4 78 3 -3 25 1 47
9 23 8 53 12 67 9 18 -4 21 -3 11 4 -12 8 -10 12 12 22 21 10 36 10 67 0 32
-9 44 -9 59 1 20 14 133 20 125 6z m-673 -141 c-10 -9 -11 -8 -5 6 3 10 9 15
12 12 3 -3 0 -11 -7 -18z m680 -117 c-86 -71 -102 -82 -128 -89 -34 -9 -94 1
-75 12 6 5 12 20 12 34 0 23 3 25 33 19 31 -5 31 -5 8 8 -24 13 -23 14 25 18
57 5 66 2 33 -11 l-24 -10 26 0 c14 -1 34 6 45 14 19 14 19 14 0 15 -20 0 -20
0 0 14 17 13 20 13 25 -1 5 -14 8 -12 22 8 9 13 18 33 19 44 0 11 3 4 5 -15 4
-29 0 -39 -26 -60z m-413 -17 c-7 -31 -6 -48 2 -58 17 -20 -25 -62 -45 -45
-12 10 -12 17 -3 34 7 11 11 36 9 54 -1 18 2 32 8 32 6 0 11 6 11 13 0 8 6 14
13 14 11 0 12 -9 5 -44z m-1819 -19 c3 -17 0 -16 -23 5 -14 14 -26 29 -26 34
0 17 45 -20 49 -39z m1965 21 c-10 -8 -28 -14 -39 -14 -20 0 -20 0 -1 14 11 8
29 15 40 15 20 0 20 0 0 -15z m-54 -33 c16 -8 24 -42 9 -42 -5 0 -9 8 -9 18
-1 15 -2 15 -13 1 -15 -20 -37 -13 -37 12 0 19 21 24 50 11z m84 -37 c3 -8 15
-15 26 -15 12 0 30 -5 41 -11 19 -10 18 -12 -18 -35 -21 -14 -42 -31 -48 -38
-27 -31 -71 -56 -101 -56 -43 0 -84 16 -84 33 0 25 49 72 77 74 58 4 73 12 73
38 0 27 24 35 34 10z m-646 -133 c-5 -28 -33 -20 -36 11 -3 26 -2 28 18 17 12
-6 20 -19 18 -28z m365 25 c7 -7 17 -22 23 -32 9 -15 20 -19 46 -17 40 4 68
-17 68 -51 0 -16 -3 -18 -9 -9 -6 10 -10 4 -15 -19 -3 -18 -18 -45 -32 -60
-22 -23 -32 -26 -60 -22 -30 5 -34 3 -34 -16 0 -11 -4 -21 -10 -21 -5 0 -10 5
-10 10 0 6 -18 10 -39 10 -22 0 -43 -4 -46 -10 -3 -5 1 -10 9 -10 9 0 34 -18
56 -41 94 -97 125 -183 96 -266 -27 -76 -53 -101 -129 -124 -103 -30 -165 -14
-226 58 -51 61 -52 62 -58 86 -24 92 -10 142 56 207 29 29 41 35 61 30 15 -4
37 -1 55 9 17 8 33 14 38 13 15 -4 5 14 -17 30 -22 16 -27 16 -53 3 -15 -8
-52 -15 -80 -15 -45 0 -53 3 -53 19 0 10 7 24 15 31 19 15 19 44 2 59 -8 6
-12 23 -9 41 3 24 9 30 31 32 14 0 33 2 41 3 8 1 21 -3 29 -9 10 -8 17 -5 29
12 8 12 23 22 35 22 17 0 19 -5 14 -40 -7 -54 7 -50 38 9 16 33 32 51 47 53
32 5 33 26 1 31 -16 2 -5 5 25 6 33 0 58 -4 65 -12z m-1356 -59 c-3 -8 -6 -5
-6 6 -1 11 2 17 5 13 3 -3 4 -12 1 -19z m1533 -89 c0 -6 -7 -12 -15 -15 -8 -4
-15 -12 -15 -19 0 -7 -6 -15 -14 -18 -7 -3 -17 -20 -21 -39 -8 -32 -8 -32 -12
-6 -3 18 3 34 17 48 12 12 19 28 16 36 -3 8 -1 14 5 14 6 0 8 4 5 9 -4 5 3 7
14 4 11 -3 20 -9 20 -14z m1 -80 c-25 -41 -27 -32 -5 19 9 20 18 32 21 26 2
-7 -5 -27 -16 -45z m-1539 17 c5 -23 3 -24 -26 -19 -44 8 -54 21 -25 32 38 15
46 13 51 -13z m1868 9 c-7 -8 -17 -15 -23 -15 -6 0 -2 7 9 15 25 19 30 19 14
0z m-1340 -25 c0 -5 -4 -10 -10 -10 -5 0 -10 5 -10 10 0 6 5 10 10 10 6 0 10
-4 10 -10z m1000 -91 c0 -6 -4 -7 -10 -4 -5 3 -10 11 -10 16 0 6 5 7 10 4 6
-3 10 -11 10 -16z m-925 -68 c-3 -6 -11 -8 -17 -5 -6 4 -5 9 3 15 16 10 23 4
14 -10z m875 -10 c-11 -21 -30 -37 -30 -25 0 8 30 44 37 44 2 0 -1 -9 -7 -19z
m-587 -31 c-3 -11 -10 -20 -15 -20 -5 0 -7 -4 -4 -8 3 -5 -19 -19 -49 -33 -31
-13 -55 -31 -55 -39 -1 -9 -6 -5 -15 10 -18 32 -18 40 0 40 8 0 15 5 15 10 0
6 9 10 20 10 11 0 20 6 20 13 0 8 4 7 10 -3 8 -12 10 -10 10 8 0 13 4 21 9 17
5 -3 12 -1 16 5 3 5 14 10 25 10 13 0 17 -5 13 -20z m-243 -50 c0 -5 -4 -10
-10 -10 -5 0 -10 5 -10 10 0 6 5 10 10 10 6 0 10 -4 10 -10z m100 -56 c0 -18
-10 -21 -45 -15 l-30 6 23 23 c19 19 26 21 38 11 8 -6 14 -17 14 -25z m70 12
c0 -11 -51 -59 -56 -53 -3 3 5 17 19 31 25 25 37 32 37 22z m-15 -116 c4 -6
-5 -10 -20 -10 -15 0 -24 4 -20 10 3 6 12 10 20 10 8 0 17 -4 20 -10z"/>
<path d="M3037 3503 c-4 -3 -7 -13 -7 -22 1 -13 3 -13 11 2 11 19 8 33 -4 20z"/>
<path d="M3010 3439 c0 -5 5 -7 10 -4 6 3 10 8 10 11 0 2 -4 4 -10 4 -5 0 -10
-5 -10 -11z"/>
<path d="M2270 2605 c7 -9 15 -13 17 -11 7 7 -7 26 -19 26 -6 0 -6 -6 2 -15z"/>
<path d="M3959 1728 c0 -2 -2 -12 -3 -24 -2 -16 2 -20 16 -16 10 2 18 10 18
18 0 8 -6 11 -17 7 -11 -4 -14 -3 -9 5 4 7 5 12 2 12 -3 0 -6 -1 -7 -2z"/>
<path d="M3607 1304 c-10 -11 -8 -54 2 -54 14 0 25 40 14 51 -5 5 -12 6 -16 3z"/>
<path d="M3395 1220 c-15 -17 -16 -20 -3 -20 9 0 19 7 22 16 10 25 1 27 -19 4z"/>
<path d="M3020 810 c-9 -6 -10 -10 -3 -10 6 0 15 5 18 10 8 12 4 12 -15 0z"/>
<path d="M3885 3400 c-3 -6 2 -13 12 -17 10 -4 23 -12 30 -18 13 -14 75 -7 67
7 -8 12 -68 38 -88 38 -8 0 -18 -5 -21 -10z"/>
<path d="M3790 3350 c0 -5 7 -7 15 -4 8 4 15 8 15 10 0 2 -7 4 -15 4 -8 0 -15
-4 -15 -10z"/>
<path d="M3447 3206 c-18 -14 -14 -20 21 -41 11 -6 12 -3 4 11 -5 11 -7 25 -5
32 6 15 3 15 -20 -2z"/>
<path d="M4220 3175 c6 -15 10 -35 10 -47 0 -17 -4 -19 -37 -14 -35 6 -40 4
-57 -26 -11 -18 -20 -36 -20 -40 -1 -3 -5 -10 -10 -15 -5 -5 -6 -3 -2 5 5 8 0
12 -12 12 -14 0 -19 -6 -17 -17 13 -62 17 -73 25 -68 6 3 10 18 10 33 0 21 2
24 10 12 8 -12 10 -12 10 5 0 15 2 17 9 6 10 -15 3 -51 -10 -51 -5 0 -9 -4 -9
-9 0 -5 9 -7 20 -4 11 3 20 9 20 13 0 19 97 73 139 78 44 5 106 -17 123 -44
24 -37 78 -94 78 -82 0 32 -62 98 -118 125 -31 15 -60 26 -64 25 -5 -1 -8 7
-8 19 0 40 -47 101 -83 107 -14 2 -15 -1 -7 -23z"/>
<path d="M4025 3140 c-3 -5 2 -21 12 -36 l17 -27 9 27 c5 14 13 26 18 26 5 0
9 5 9 10 0 13 -57 13 -65 0z"/>
<path d="M3861 3076 c-9 -10 -8 -15 4 -20 10 -4 15 1 15 14 0 24 -4 25 -19 6z"/>
<path d="M3530 2981 c0 -5 5 -13 10 -16 6 -3 10 -2 10 4 0 5 -4 13 -10 16 -5
3 -10 2 -10 -4z"/>
<path d="M2491 2891 c-11 -7 -11 -13 0 -32 11 -20 14 -21 17 -6 6 29 -2 47
-17 38z"/>
<path d="M3791 2834 c0 -11 3 -14 6 -6 3 7 2 16 -1 19 -3 4 -6 -2 -5 -13z"/>
<path d="M3388 2814 c-3 -3 5 -17 18 -31 l24 -26 26 24 26 24 -29 6 c-39 9
-59 10 -65 3z"/>
<path d="M3495 2781 l-40 -19 25 -11 c14 -6 38 -21 53 -33 l28 -23 19 25 c16
21 17 26 5 28 -8 2 -15 14 -15 28 0 29 -19 31 -75 5z m63 -36 c-3 -3 -9 2 -12
12 -6 14 -5 15 5 6 7 -7 10 -15 7 -18z"/>
<path d="M4538 2711 c-3 -38 -11 -67 -22 -79 -21 -24 -104 -68 -145 -77 -17
-4 -31 -8 -31 -10 0 -2 14 -27 30 -55 17 -28 30 -59 30 -68 0 -20 20 -54 20
-34 0 6 9 12 20 12 11 0 23 8 27 18 9 25 34 52 49 52 7 0 19 -10 26 -22 8 -14
23 -23 38 -23 34 0 39 -43 10 -89 -25 -41 -15 -51 37 -36 l38 12 0 71 c-1 76
-14 120 -40 134 -11 7 -17 33 -22 106 -5 88 -8 98 -33 122 l-27 26 -5 -60z"/>
<path d="M3800 2610 c0 -5 7 -10 16 -10 8 0 12 5 9 10 -3 6 -10 10 -16 10 -5
0 -9 -4 -9 -10z"/>
<path d="M3790 2579 c0 -5 5 -7 10 -4 6 3 10 8 10 11 0 2 -4 4 -10 4 -5 0 -10
-5 -10 -11z"/>
<path d="M3800 2509 c0 -5 5 -7 10 -4 6 3 10 8 10 11 0 2 -4 4 -10 4 -5 0 -10
-5 -10 -11z"/>
<path d="M3800 2330 c0 -5 5 -10 10 -10 6 0 10 5 10 10 0 6 -4 10 -10 10 -5 0
-10 -4 -10 -10z"/>
<path d="M3905 2296 c10 -14 19 -26 22 -26 7 0 -17 39 -28 46 -6 3 -3 -5 6
-20z"/>
<path d="M2315 2038 c-4 -15 -2 -35 5 -47 6 -12 8 -26 5 -31 -3 -6 5 -10 19
-10 25 0 48 -17 65 -48 15 -26 25 -6 13 25 -10 25 -19 67 -21 101 -1 7 -15 12
-35 12 -19 0 -36 6 -39 13 -2 6 -8 0 -12 -15z"/>
<path d="M3567 1912 c-24 -40 -47 -84 -47 -92 0 -12 73 0 82 14 4 6 6 17 3 23
-2 7 1 12 7 10 6 -1 12 3 15 10 5 13 -53 47 -60 35z"/>
<path d="M3140 1894 c0 -14 23 -45 41 -55 18 -9 19 -8 10 8 -24 41 -51 66 -51
47z"/>
<path d="M4660 1850 c0 -5 5 -10 11 -10 5 0 7 5 4 10 -3 6 -8 10 -11 10 -2 0
-4 -4 -4 -10z"/>
<path d="M4673 1795 c0 -22 2 -30 4 -17 2 12 2 30 0 40 -3 9 -5 -1 -4 -23z"/>
<path d="M2895 1800 c-6 -10 2 -108 11 -122 3 -5 9 -6 14 -3 4 3 7 -3 6 -13
-2 -24 33 -22 66 4 25 19 26 24 17 58 -5 20 -16 36 -23 36 -8 0 -21 11 -30 25
-17 25 -50 33 -61 15z"/>
<path d="M2070 1780 c0 -9 60 -63 97 -89 36 -24 53 -13 22 15 -11 10 -29 33
-40 51 -17 27 -26 33 -50 31 -16 -1 -29 -5 -29 -8z"/>
<path d="M3178 1783 c-10 -2 -18 -11 -18 -18 0 -11 6 -11 30 1 43 22 37 30
-12 17z"/>
<path d="M3320 1710 c0 -5 5 -10 10 -10 6 0 10 5 10 10 0 6 -4 10 -10 10 -5 0
-10 -4 -10 -10z"/>
<path d="M3295 1610 c3 -5 11 -10 16 -10 6 0 7 5 4 10 -3 6 -11 10 -16 10 -6
0 -7 -4 -4 -10z"/>
<path d="M4200 1309 c0 -5 5 -7 10 -4 6 3 10 8 10 11 0 2 -4 4 -10 4 -5 0 -10
-5 -10 -11z"/>
<path d="M2950 1265 c10 -12 9 -15 -5 -15 -10 0 -16 -2 -14 -5 3 -2 22 -2 43
2 l38 6 -32 13 c-41 18 -45 17 -30 -1z"/>
<path d="M2930 1220 c19 -13 30 -13 30 0 0 6 -10 10 -22 10 -19 0 -20 -2 -8
-10z"/>
<path d="M3025 1129 c-10 -15 3 -25 16 -12 7 7 7 13 1 17 -6 3 -14 1 -17 -5z"/>
<path d="M2347 1054 c-8 -8 3 -34 14 -34 5 0 9 9 9 20 0 19 -11 26 -23 14z"/>
<path d="M3055 1020 c-3 -5 -1 -10 4 -10 6 0 11 5 11 10 0 6 -2 10 -4 10 -3 0
-8 -4 -11 -10z"/>
</g>
</svg>
